<?xml version="1.0" encoding="iso-8859-1"?>
<!-- Generator: Adobe Illustrator 19.0.0, SVG Export Plug-In . SVG Version: 6.00 Build 0)  -->
<svg version="1.1" id="Capa_1" xmlns="http://www.w3.org/2000/svg" xmlns:xlink="http://www.w3.org/1999/xlink" x="0px" y="0px"
	 viewBox="0 0 489.901 489.901" style="enable-background:new 0 0 489.901 489.901;" xml:space="preserve">
<g>
	<g>
		<path d="M469.2,448.9h-87.4v-68.7c0-11.4-9.4-20.8-20.8-20.8s-20.8,9.4-20.8,20.8v68.7h-74.9V302.2c0-11.4-9.4-20.8-20.8-20.8
			s-20.8,9.4-20.8,20.8v146.7h-74.9V130.6c0-11.4-9.4-20.8-20.8-20.8s-20.8,9.4-20.8,20.8v318.3H41.6V21.3
			c0-11.4-9.4-20.8-20.8-20.8S0,9.9,0,21.3v447.3c0,11.4,9.4,20.8,20.8,20.8h447.3c11.4,0,21.8-8.3,21.8-19.8
			C490,458.3,480.6,448.9,469.2,448.9z"/>
		<path d="M310.2,244.8c25.5,0,49.1-8,68.5-21.7l61.4,61.4c10.7,9.8,25,4.2,29.1,0c8.3-8.3,8.3-20.8,0-29.1L407.8,194
			c13.7-19.4,21.8-43.1,21.8-68.7C429.6,59.4,376,5.9,310.2,5.9S190.7,59.5,190.7,125.4S244.3,244.8,310.2,244.8z M310.2,47.8
			c42.8,0,77.5,34.8,77.5,77.5s-34.8,77.5-77.5,77.5s-77.5-34.8-77.5-77.5S267.4,47.8,310.2,47.8z"/>
	</g>
</g>
<g>
</g>
<g>
</g>
<g>
</g>
<g>
</g>
<g>
</g>
<g>
</g>
<g>
</g>
<g>
</g>
<g>
</g>
<g>
</g>
<g>
</g>
<g>
</g>
<g>
</g>
<g>
</g>
<g>
</g>
</svg>
