<?xml version="1.0" encoding="iso-8859-1"?>
<!-- Generator: Adobe Illustrator 19.0.0, SVG Export Plug-In . SVG Version: 6.00 Build 0)  -->
<svg version="1.1" id="Layer_1" xmlns="http://www.w3.org/2000/svg" xmlns:xlink="http://www.w3.org/1999/xlink" x="0px" y="0px"
	 viewBox="0 0 500 500" style="enable-background:new 0 0 500 500;" xml:space="preserve">
<g>
	<g>
		<path d="M253.902,234.284H82.09c-2.212,0-4,1.788-4,4c0,2.212,1.788,4,4,4h171.816c2.208,0,3.996-1.788,3.996-4
			C257.902,236.072,256.114,234.284,253.902,234.284z"/>
	</g>
</g>
<g>
	<g>
		<path d="M253.902,265.524H82.09c-2.212,0-4,1.788-4,4c0,2.212,1.788,4,4,4h171.816c2.208,0,3.996-1.788,3.996-4
			C257.902,267.312,256.114,265.524,253.902,265.524z"/>
	</g>
</g>
<g>
	<g>
		<path d="M253.902,296.76H82.09c-2.212,0-4,1.788-4,4c0,2.212,1.788,4,4,4h171.816c2.208,0,3.996-1.788,3.996-4
			C257.902,298.548,256.114,296.76,253.902,296.76z"/>
	</g>
</g>
<g>
	<g>
		<path d="M253.902,328H82.09c-2.212,0-4,1.788-4,4c0,2.212,1.788,4,4,4h171.816c2.208,0,3.996-1.788,3.996-4
			C257.902,329.788,256.114,328,253.902,328z"/>
	</g>
</g>
<g>
	<g>
		<path d="M331.998,359.24h-117.14c-2.212,0-4,1.788-4,4c0,2.212,1.788,4,4,4h117.14c2.212,0,4-1.788,4-4
			S334.21,359.24,331.998,359.24z"/>
	</g>
</g>
<g>
	<g>
		<path d="M331.998,390.476h-117.14c-2.212,0-4,1.788-4,4c0,2.212,1.788,4,4,4h117.14c2.212,0,4-1.788,4-4
			C335.998,392.264,334.21,390.476,331.998,390.476z"/>
	</g>
</g>
<g>
	<g>
		<path d="M331.998,421.716h-117.14c-2.212,0-4,1.788-4,4c0,2.212,1.788,4,4,4h117.14c2.212,0,4-1.788,4-4
			C335.998,423.504,334.21,421.716,331.998,421.716z"/>
	</g>
</g>
<g>
	<g>
		<path d="M331.998,452.952h-117.14c-2.212,0-4,1.788-4,4c0,2.212,1.788,4,4,4h117.14c2.212,0,4-1.788,4-4
			C335.998,454.74,334.21,452.952,331.998,452.952z"/>
	</g>
</g>
<g>
	<g>
		<path d="M331.998,234.284h-50.76c-2.212,0-4,1.788-4,4c0,2.212,1.788,4,4,4h50.76c2.212,0,4-1.788,4-4
			S334.21,234.284,331.998,234.284z"/>
	</g>
</g>
<g>
	<g>
		<path d="M331.998,265.524h-50.76c-2.212,0-4,1.788-4,4c0,2.212,1.788,4,4,4h50.76c2.212,0,4-1.788,4-4
			S334.21,265.524,331.998,265.524z"/>
	</g>
</g>
<g>
	<g>
		<path d="M331.998,296.76h-50.76c-2.212,0-4,1.788-4,4c0,2.212,1.788,4,4,4h50.76c2.212,0,4-1.788,4-4
			C335.998,298.548,334.21,296.76,331.998,296.76z"/>
	</g>
</g>
<g>
	<g>
		<path d="M331.998,328h-50.76c-2.212,0-4,1.788-4,4c0,2.212,1.788,4,4,4h50.76c2.212,0,4-1.788,4-4
			C335.998,329.788,334.21,328,331.998,328z"/>
	</g>
</g>
<g>
	<g>
		<path d="M356.858,85.904H57.234c-5.724,0-10.376,4.652-10.376,10.376v393.344c0,5.724,4.652,10.376,10.376,10.376h299.624
			c5.724,0,10.38-4.652,10.38-10.376V96.28C367.238,90.556,362.582,85.904,356.858,85.904z M359.238,489.628
			c0,1.308-1.068,2.376-2.38,2.376H57.234c-1.308,0-2.376-1.068-2.376-2.376V96.284c0-1.308,1.068-2.376,2.376-2.376v-0.004h299.624
			c1.312,0,2.38,1.068,2.38,2.376V489.628z"/>
	</g>
</g>
<g>
	<g>
		<path d="M331.998,124.952H82.09c-2.212,0-4,1.788-4,4v78.096c0,2.212,1.788,4,4,4h249.908c2.212,0,4-1.792,4-4.004v-78.092
			C335.998,126.74,334.21,124.952,331.998,124.952z M327.998,203.048H86.09v-70.096h241.908V203.048z"/>
	</g>
</g>
<g>
	<g>
		<path d="M179.714,359.24H85.998c-2.212,0-4,1.788-4,4v93.712c0,2.212,1.788,4,4,4h93.716c2.208,0,4-1.788,4-3.996V363.24
			C183.714,361.028,181.926,359.24,179.714,359.24z M175.714,452.952H89.998V367.24h85.716V452.952z"/>
	</g>
</g>
<g>
	<g>
		<path d="M401.038,42.956H101.222c-5.612,0-11.416,3.54-11.416,9.456v37.496c0,2.212,1.788,4,4,4c2.212,0,4-1.788,4-4V52.412
			c0-0.56,1.564-1.456,3.416-1.456h299.816c0.648,0,0.912,0.112,0.936,0.112h0.004c0.024,0.048,0.212,0.392,0.212,1.344v393.336
			c0,1.94-0.744,3.3-1.152,3.3h-37.8c-2.212,0-4,1.788-4,4c0,2.212,1.788,4,4,4h37.8c5.304,0,9.152-4.756,9.152-11.3V52.412
			C410.19,46.58,406.682,42.956,401.038,42.956z"/>
	</g>
</g>
<g>
	<g>
		<path d="M444.014,0h-299.82c-5.62,0-11.432,3.524-11.432,9.432v37.52c0,2.212,1.788,4,4,4c2.212,0,4-1.788,4-4V9.432
			c0-0.552,1.568-1.432,3.432-1.432h299.82c0.68,0,0.928,0.108,0.924,0.1c0.032,0.06,0.204,0.416,0.204,1.332v393.336
			c0,1.952-0.728,3.324-1.128,3.324h-33.92c-2.212,0-4,1.788-4,4c0,2.212,1.788,4,4,4h33.92c5.288,0,9.128-4.76,9.128-11.324V9.432
			C453.142,3.612,449.646,0,444.014,0z"/>
	</g>
</g>
<g>
</g>
<g>
</g>
<g>
</g>
<g>
</g>
<g>
</g>
<g>
</g>
<g>
</g>
<g>
</g>
<g>
</g>
<g>
</g>
<g>
</g>
<g>
</g>
<g>
</g>
<g>
</g>
<g>
</g>
</svg>
