<?xml version="1.0" encoding="iso-8859-1"?>
<!-- Generator: Adobe Illustrator 19.0.0, SVG Export Plug-In . SVG Version: 6.00 Build 0)  -->
<svg version="1.1" id="Layer_1" xmlns="http://www.w3.org/2000/svg" xmlns:xlink="http://www.w3.org/1999/xlink" x="0px" y="0px"
	 viewBox="0 0 278.44 278.44" style="enable-background:new 0 0 278.44 278.44;" xml:space="preserve">
<g>
	<g>
		<g id="XMLID_30_">
			<g>
				<g>
					<g>
						<path style="fill:#2D213F;" d="M263.848,126.75v143.697c0,4.4-3.563,7.993-7.993,7.993H22.556c-4.4,0-7.963-3.594-7.963-7.993
							V126.75c0-2.014,0.744-3.935,2.107-5.422l29.495-32.036c0.62-0.682,1.394-1.208,2.2-1.642V49.913
							c0-2.169,0.898-4.245,2.448-5.763L94.405,2.231C95.892,0.806,97.875,0,99.951,0h120.088c4.4,0,7.993,3.594,7.993,7.993v79.966
							c0.496,0.31,0.991,0.651,1.425,1.084l32.036,32.067C263.012,122.598,263.848,124.643,263.848,126.75z M247.892,250.99v-107.2
							L175.3,177.499L247.892,250.99z M228.033,135.394l17.195-7.993l-17.195-17.195L228.033,135.394L228.033,135.394z
							 M236.77,262.453l-96.882-98.06l-98.06,98.06H236.77z M212.077,142.83V15.987h-104.38v32.934c0,4.4-3.563,7.963-7.993,7.963
							h-35.32v84.799l51.431,24.228l18.466-18.466c1.518-1.518,3.532-2.355,5.639-2.355c0.031,0,0.031,0,0.031,0
							c2.138,0,4.183,0.868,5.67,2.386l17.753,17.97L212.077,142.83z M30.55,251.176l73.243-73.274L30.55,143.387
							C30.55,143.387,30.55,251.176,30.55,251.176z M91.74,40.928V26.986l-14.5,13.942H91.74z M48.396,134.154v-23.702
							l-15.181,16.514L48.396,134.154z"/>
					</g>
				</g>
				<g>
					<g>
						<polygon style="fill:#FEDE94;" points="247.892,143.79 247.892,250.99 175.3,177.499 						"/>
					</g>
				</g>
				<g>
					<g>
						<polygon style="fill:#F2CE75;" points="245.228,127.4 228.033,135.394 228.033,110.205 						"/>
					</g>
				</g>
				<g>
					<g>
						<polygon style="fill:#FEDE94;" points="139.887,164.393 236.77,262.453 41.827,262.453 						"/>
					</g>
				</g>
				<g>
					<g>
						<polygon style="fill:#F2CE75;" points="247.889,250.909 186.349,172.368 175.3,177.499 247.892,250.99 						"/>
					</g>
				</g>
				<g>
					<g>
						<path style="fill:#C5CBCF;" d="M212.077,15.987V142.83l-48.705,22.617l-17.753-17.97c-1.487-1.518-3.532-2.386-5.67-2.386
							c0,0,0,0-0.031,0c-2.107,0-4.121,0.837-5.639,2.355l-18.466,18.466l-51.431-24.228v-84.8h35.32
							c4.431,0,7.993-3.563,7.993-7.963V15.987H212.077z"/>
					</g>
				</g>
				<g>
					<g>
						<polygon style="fill:#FEDE94;" points="103.793,177.902 30.55,251.176 30.55,143.387 						"/>
					</g>
				</g>
				<g>
					<g>
						<polygon style="fill:#C5CBCF;" points="91.74,26.986 91.74,40.928 77.24,40.928 						"/>
					</g>
				</g>
				<g>
					<g>
						<polygon style="fill:#F2CE75;" points="48.396,110.453 48.396,134.154 33.214,126.966 						"/>
					</g>
				</g>
			</g>
		</g>
		<g>
			<g>
				<polygon style="fill:#F2CE75;" points="93.237,172.926 30.045,251.442 30.55,251.176 103.793,177.902 				"/>
			</g>
		</g>
		<g>
			<g>
				<path style="fill:#EAEEEF;" d="M180.852,19.99h-73.156v28.932c0,4.4-3.563,7.963-7.993,7.963h-35.32v67.79
					c3.269,9.041,8.384,17.189,14.881,24.018l36.55,17.22l18.466-18.466c1.518-1.518,3.532-2.355,5.639-2.355
					c0.031,0,0.031,0,0.031,0c2.138,0,4.183,0.868,5.67,2.386l17.753,17.97l27.314-12.684c1.345-3.275,2.101-6.853,2.101-10.612
					V31.921C192.787,25.331,187.442,19.99,180.852,19.99z"/>
			</g>
		</g>
		<g>
			<g>
				<path style="fill:#F2CE75;" d="M133.982,170.299c7.594,6.705,63.074,55.967,94.869,92.154h7.919l-96.882-98.06L133.982,170.299z
					"/>
			</g>
		</g>
	</g>
</g>
<g>
</g>
<g>
</g>
<g>
</g>
<g>
</g>
<g>
</g>
<g>
</g>
<g>
</g>
<g>
</g>
<g>
</g>
<g>
</g>
<g>
</g>
<g>
</g>
<g>
</g>
<g>
</g>
<g>
</g>
</svg>
