<?xml version="1.0" encoding="iso-8859-1"?>
<!-- Generator: Adobe Illustrator 19.0.0, SVG Export Plug-In . SVG Version: 6.00 Build 0)  -->
<svg version="1.1" id="Layer_1" xmlns="http://www.w3.org/2000/svg" xmlns:xlink="http://www.w3.org/1999/xlink" x="0px" y="0px"
	 viewBox="0 0 512 512" style="enable-background:new 0 0 512 512;" xml:space="preserve">
<g>
	<g>
		<path d="M366.508,46.024C337.01,16.345,297.801,0,255.88,0s-80.949,16.345-110.447,46.024
			c-29.431,29.613-45.337,69.03-45.337,110.988v18.782c0,24.518,5.413,49.138,16.112,71.201l2.605,5.617
			c6.856,14.138,16.259,27.661,27.706,40.191c18.099,19.811,28.189,45.502,28.189,72.339v70.74
			c0,28.309,22.667,51.619,50.977,51.619h12.498v7.795c0,9.225,7.479,16.704,16.704,16.704c9.225,0,16.704-7.479,16.704-16.704
			v-7.795h14.725c28.31,0,50.977-23.309,50.977-51.619v-70.74c0-26.838,10.149-52.528,28.249-72.339
			c11.448-12.53,20.82-26.053,27.674-40.189l2.532-5.623c10.697-22.06,16.156-46.681,16.156-71.199v-18.782
			C411.905,115.054,395.938,75.637,366.508,46.024z M303.886,435.882c0,9.889-7.682,18.211-17.57,18.211h-60.63
			c-9.889,0-17.569-8.322-17.569-18.211v-2.948h95.769V435.882z M303.886,399.527h-95.769v-22.272h95.769V399.527z M378.497,175.794
			c0,19.498-4.255,39.077-12.762,56.619l-2.607,5.622c-5.45,11.238-12.854,22.084-22.128,32.234
			c-18.897,20.683-30.965,46.253-35.13,73.578h-99.737c-4.166-27.324-16.294-52.895-35.191-73.578
			c-9.274-10.15-16.74-20.996-22.192-32.236l-2.482-5.617c-8.509-17.544-12.763-37.123-12.763-56.621v-18.782
			c0-68.156,54.684-123.604,122.496-123.604c67.811,0,122.496,55.448,122.496,123.604V175.794z"/>
	</g>
</g>
<g>
	<g>
		<path d="M255.958,75.58c-1.99-9.008-10.908-14.695-19.912-12.711c-27.449,6.06-49.038,23.202-62.435,49.572
			c-9.568,18.834-11.573,35.7-11.77,37.561c-0.971,9.174,5.675,17.437,14.849,18.408c0.6,0.063,1.196,0.095,1.787,0.095
			c8.431,0,15.669-6.335,16.578-14.909c0.229-1.989,6.105-48.811,48.192-58.103C252.255,93.503,257.947,84.588,255.958,75.58z"/>
	</g>
</g>
<g>
</g>
<g>
</g>
<g>
</g>
<g>
</g>
<g>
</g>
<g>
</g>
<g>
</g>
<g>
</g>
<g>
</g>
<g>
</g>
<g>
</g>
<g>
</g>
<g>
</g>
<g>
</g>
<g>
</g>
</svg>
