<?xml version="1.0" ?><svg width="512px" height="512px" viewBox="0 0 512 512" id="Layer_1" style="enable-background:new 0 0 512 512;" version="1.1" xml:space="preserve" xmlns="http://www.w3.org/2000/svg" xmlns:xlink="http://www.w3.org/1999/xlink"><style type="text/css">
	.st0{fill:#69C9C9;}
	.st1{fill:#4D5152;}
</style><polygon class="st0" points="408.8,410.3 394.7,396.2 401.7,389.1 392.1,379.5 468.9,364.3 453.7,441.1 415.9,403.3 "/><g><g><path class="st1" d="M355.3,62.6c-12.4-6.4-25.5-11.7-39-15.6l5.6-19.2c14.7,4.3,29,10,42.6,17L355.3,62.6z"/></g><g><path class="st1" d="M402.9,96.1c-9.5-8.8-19.8-16.7-30.6-23.6l10.8-16.9c11.8,7.5,23,16.2,33.4,25.8L402.9,96.1z"/></g><g><path class="st1" d="M456.7,129.8l-16.9,10.6c-6.8-10.8-14.7-21.2-23.4-30.7l14.8-13.5C440.7,106.6,449.3,117.9,456.7,129.8z"/></g><g><path class="st1" d="M483.9,190.9l-19.2,5.5c-3.8-13.3-8.9-26.4-15.1-38.7l17.8-9C474.2,162.1,479.8,176.3,483.9,190.9z"/></g><g><path class="st1" d="M466,481.7l-50.4-50.4c-44,40.3-100.6,62.3-160.7,62.3c-63.4-0.1-122.9-24.8-167.7-69.6    c-44.9-44.9-69.6-104.6-69.6-168c0-63.5,24.7-123.1,69.6-168c55.2-55.2,134.1-79.8,211-65.7L294.7,42    C224.3,29,152,51.5,101.4,102.1c-84.9,84.9-84.9,222.9,0,307.8c84.6,84.6,222.5,84.8,307.3,0.4l7.1-7l37.8,37.8l15.2-76.8    l-76.8,15.2l9.6,9.6l-14.1,14.1l-36.1-36.1l142.8-28.3L466,481.7z"/></g></g></svg>